<svg width="23" height="23" viewBox="0 0 23 23" fill="none" xmlns="http://www.w3.org/2000/svg">
<mask id="mask0_23_246" style="mask-type:luminance" maskUnits="userSpaceOnUse" x="0" y="0" width="23" height="23">
<rect width="23" height="23" fill="white"/>
</mask>
<g mask="url(#mask0_23_246)">
<path fill-rule="evenodd" clip-rule="evenodd" d="M20.8968 9.62284H20.1248V9.58306H11.4998V13.4164H16.9159C16.1257 15.6479 14.0025 17.2497 11.4998 17.2497C8.3244 17.2497 5.74984 14.6752 5.74984 11.4997C5.74984 8.32429 8.3244 5.74973 11.4998 5.74973C12.9656 5.74973 14.2991 6.30269 15.3145 7.20592L18.0251 4.49527C16.3135 2.90013 14.0241 1.9164 11.4998 1.9164C6.20744 1.9164 1.9165 6.20733 1.9165 11.4997C1.9165 16.7921 6.20744 21.0831 11.4998 21.0831C16.7922 21.0831 21.0832 16.7921 21.0832 11.4997C21.0832 10.8572 21.017 10.2299 20.8968 9.62284Z" fill="#FFC107"/>
<path fill-rule="evenodd" clip-rule="evenodd" d="M3.02148 7.03917L6.17009 9.34827C7.02205 7.23898 9.08534 5.74973 11.4999 5.74973C12.9656 5.74973 14.2992 6.30269 15.3145 7.20592L18.0252 4.49527C16.3136 2.90013 14.0241 1.9164 11.4999 1.9164C7.8189 1.9164 4.62669 3.99454 3.02148 7.03917Z" fill="#FF3D00"/>
<path fill-rule="evenodd" clip-rule="evenodd" d="M11.5001 21.0833C13.9754 21.0833 16.2247 20.1359 17.9252 18.5954L14.9592 16.0855C13.997 16.8144 12.801 17.2499 11.5001 17.2499C9.00744 17.2499 6.89096 15.6605 6.09363 13.4425L2.96851 15.8503C4.55455 18.9538 7.77551 21.0833 11.5001 21.0833Z" fill="#4CAF50"/>
<path fill-rule="evenodd" clip-rule="evenodd" d="M20.8969 9.62337H20.125V9.5836H11.5V13.4169H16.916C16.5365 14.4888 15.847 15.4131 14.9577 16.0864C14.9581 16.0859 14.9586 16.0859 14.9591 16.0854L17.9251 18.5953C17.7153 18.786 21.0833 16.2919 21.0833 11.5003C21.0833 10.8577 21.0172 10.2305 20.8969 9.62337Z" fill="#1976D2"/>
</g>
</svg>
